<?xml version="1.0" encoding="UTF-8" standalone="no"?>
<!-- Generator: Adobe Illustrator 16.0.0, SVG Export Plug-In . SVG Version: 6.00 Build 0)  -->

<svg
   height="792px"
   id="Capa_1"
   inkscape:version="0.92.5 (2060ec1f9f, 2020-04-08)"
   sodipodi:docname="totp.svg"
   style="enable-background:new 0 0 792 792;"
   version="1.1"
   viewBox="0 0 792 792"
   width="792px"
   x="0px"
   xml:space="preserve"
   xmlns="http://www.w3.org/2000/svg"
   xmlns:cc="http://creativecommons.org/ns#"
   xmlns:dc="http://purl.org/dc/elements/1.1/"
   xmlns:inkscape="http://www.inkscape.org/namespaces/inkscape"
   xmlns:rdf="http://www.w3.org/1999/02/22-rdf-syntax-ns#"
   xmlns:sodipodi="http://sodipodi.sourceforge.net/DTD/sodipodi-0.dtd"
   xmlns:svg="http://www.w3.org/2000/svg"
   y="0px"><metadata
   id="metadata41"><rdf:RDF><cc:Work
       rdf:about=""><dc:format>image/svg+xml</dc:format><dc:type
         rdf:resource="http://purl.org/dc/dcmitype/StillImage" /></cc:Work></rdf:RDF></metadata><defs
   id="defs39" /><sodipodi:namedview
   bordercolor="#666666"
   borderopacity="1"
   gridtolerance="10"
   guidetolerance="10"
   id="namedview37"
   inkscape:current-layer="Capa_1"
   inkscape:cx="163.20486"
   inkscape:cy="443.43352"
   inkscape:pageopacity="0"
   inkscape:pageshadow="2"
   inkscape:window-height="1016"
   inkscape:window-maximized="1"
   inkscape:window-width="1848"
   inkscape:window-x="72"
   inkscape:window-y="27"
   inkscape:zoom="0.5959596"
   objecttolerance="10"
   pagecolor="#ffffff"
   showgrid="false" />
<g
   id="g4">
	<path
   d="M521.806,792c0,0,71.889,0,71.889-71.997V71.997C593.694,0,521.806,0,521.806,0H270.194c0,0-71.889,0-71.889,71.997   v648.006C198.306,792,270.194,792,270.194,792H521.806z M396,762.022c-19.841,0-35.944-16.104-35.944-35.944   c0-19.842,16.103-35.944,35.944-35.944c19.842,0,35.944,16.103,35.944,35.944C431.944,745.919,415.842,762.022,396,762.022z    M342.083,43.888c0-4.457,2.121-7.944,4.78-7.944h98.272c2.624,0,4.781,3.559,4.781,7.944v2.121c0,4.457-2.157,7.944-4.781,7.944   h-98.272c-2.624,0-4.78-3.559-4.78-7.944V43.888z M234.25,89.861h323.5v575.111h-323.5V89.861z"
   id="path2" />
</g>
<g
   id="g6">
</g>
<g
   id="g8">
</g>
<g
   id="g10">
</g>
<g
   id="g12">
</g>
<g
   id="g14">
</g>
<g
   id="g16">
</g>
<g
   id="g18">
</g>
<g
   id="g20">
</g>
<g
   id="g22">
</g>
<g
   id="g24">
</g>
<g
   id="g26">
</g>
<g
   id="g28">
</g>
<g
   id="g30">
</g>
<g
   id="g32">
</g>
<g
   id="g34">
</g>
<text
   id="text3748"
   style="font-style:normal;font-variant:normal;font-weight:normal;font-stretch:normal;font-size:64px;line-height:1.25;font-family:monospace;-inkscape-font-specification:monospace;text-align:center;letter-spacing:0px;word-spacing:0px;writing-mode:lr-tb;text-anchor:middle;fill:#000000;fill-opacity:1;stroke:none"
   x="394.32812"
   xml:space="preserve"
   y="328.88135"><tspan
     id="tspan3746"
     sodipodi:role="line"
     x="394.32812"
     y="328.88135">170831</tspan></text>
</svg>
