<svg width="30" height="23" viewBox="0 0 30 23" fill="none" xmlns="http://www.w3.org/2000/svg">
  <path d="M29.2875 2.38257H28.1391V17.3874C28.1391 17.3874 28.1391 18.2673 27.2842 18.2565C26.5884 18.2484 22.5761 16.521 17.2562 19.4099C17.1612 19.4613 17.0802 19.5398 17.0271 19.6319C16.8371 19.9622 16.242 20.7744 14.9986 20.7744C13.7301 20.7744 13.1377 19.9297 12.9589 19.6129C12.9142 19.5344 12.85 19.4667 12.7689 19.4234C7.43504 16.5129 3.40877 18.2429 2.71305 18.2538C1.85806 18.2646 1.85806 17.3847 1.85806 17.3847V2.38257H0.751606C0.335289 2.38257 0 2.70746 0 3.11088V17.8476C0 20.7582 2.69628 20.2519 2.69628 20.2519C7.47136 18.974 10.3884 20.4468 11.587 21.1318C11.587 21.1318 12.5678 23 14.9902 23C14.9902 23 17.3121 23.0297 18.6588 20.9964C19.9832 20.2762 22.8276 19.0552 27.3037 20.2546C27.3037 20.2546 30 20.7609 30 17.8504V3.07297C30 2.69122 29.6815 2.38257 29.2875 2.38257Z" fill="#000000"/>
  <path d="M4.13806 16.0634C5.64686 15.8902 10.1789 15.6113 13.9285 17.8639C14.0207 17.9181 14.1381 17.8558 14.1381 17.7529V2.73728C14.1381 2.61815 14.0878 2.50444 14.0011 2.4205C13.3865 1.82215 10.6036 -0.438584 4.04585 0.0785426C3.80556 0.0974949 3.62115 0.289725 3.62115 0.522568V15.6194C3.62115 15.8875 3.86424 16.0932 4.13806 16.0634Z" fill="#000000"/>
  <path d="M16.1469 17.8314C19.877 15.6167 24.3643 15.8874 25.8759 16.0607C26.1553 16.0932 26.4012 15.8793 26.4012 15.6059V0.533379C26.4012 0.295122 26.2112 0.0947691 25.9653 0.0758168C19.4272 -0.438603 16.6443 1.81131 16.024 2.41507C15.9346 2.50171 15.8843 2.61813 15.8843 2.73997V17.6879C15.8843 17.8179 16.0324 17.8991 16.1469 17.8314Z" fill="#000000"/>
</svg>
